<svg width="18" height="18" viewBox="0 0 18 18" fill="none" xmlns="http://www.w3.org/2000/svg">
<path d="M17.2284 16.4465L12.4424 11.6585C13.6289 10.2693 14.2315 8.47469 14.1237 6.65095C14.0159 4.82721 13.2061 3.11606 11.8642 1.87635C10.5223 0.636643 8.75243 -0.0353039 6.92588 0.00143056C5.09933 0.0381651 3.35795 0.780728 2.06696 2.07339C0.775961 3.36604 0.0356386 5.10838 0.00125343 6.93497C-0.0331318 8.76157 0.641091 10.5305 1.88252 11.8709C3.12395 13.2112 4.83615 14.0188 6.66003 14.1242C8.4839 14.2297 10.2778 13.6248 11.6654 12.4365L16.4504 17.2245C16.5005 17.2794 16.5612 17.3236 16.6289 17.3544C16.6966 17.3852 16.7698 17.402 16.8441 17.4037C16.9184 17.4054 16.9923 17.392 17.0614 17.3643C17.1304 17.3367 17.1931 17.2953 17.2456 17.2427C17.2982 17.1901 17.3396 17.1275 17.3672 17.0584C17.3949 16.9894 17.4083 16.9155 17.4066 16.8412C17.4049 16.7669 17.3881 16.6937 17.3573 16.626C17.3265 16.5583 17.2823 16.4976 17.2274 16.4475L17.2284 16.4465ZM1.14339 7.08349C1.14498 5.90782 1.49505 4.75901 2.14936 3.78225C2.80368 2.80548 3.73287 2.04462 4.8195 1.5958C5.90612 1.14699 7.10141 1.03038 8.2543 1.26071C9.40718 1.49104 10.4659 2.05797 11.2967 2.88986C12.1274 3.72174 12.6929 4.78122 12.9217 5.93442C13.1505 7.08761 13.0323 8.28274 12.582 9.36876C12.1317 10.4548 11.3696 11.383 10.392 12.036C9.41434 12.689 8.26506 13.0375 7.08939 13.0375C5.51193 13.0346 4.00002 12.4061 2.88533 11.2899C1.77064 10.1737 1.14419 8.66096 1.14339 7.08349V7.08349Z" fill="white"/>
</svg>
