<svg width="17" height="20" viewBox="0 0 17 20" fill="none" xmlns="http://www.w3.org/2000/svg">
<path d="M14.5 4H12.712C12.6228 2.94428 12.1404 1.96054 11.3604 1.2436C10.5803 0.526652 9.55948 0.128784 8.5 0.128784C7.44052 0.128784 6.41967 0.526652 5.63961 1.2436C4.85956 1.96054 4.37718 2.94428 4.288 4H2.5C1.83696 4 1.20107 4.26339 0.732233 4.73223C0.263392 5.20107 0 5.83695 0 6.5L0 17.5C0 18.163 0.263392 18.7989 0.732233 19.2678C1.20107 19.7366 1.83696 20 2.5 20H14.5C15.163 20 15.7989 19.7366 16.2678 19.2678C16.7366 18.7989 17 18.163 17 17.5V6.5C17 5.83695 16.7366 5.20107 16.2678 4.73223C15.7989 4.26339 15.163 4 14.5 4V4ZM8.5 1.125C9.29464 1.12746 10.0607 1.4216 10.6528 1.95158C11.2449 2.48155 11.6218 3.21048 11.712 4H5.288C5.37817 3.21048 5.75508 2.48155 6.34718 1.95158C6.93928 1.4216 7.70536 1.12746 8.5 1.125ZM16 17.5C16 17.8978 15.842 18.2794 15.5607 18.5607C15.2794 18.842 14.8978 19 14.5 19H2.5C2.10218 19 1.72064 18.842 1.43934 18.5607C1.15804 18.2794 1 17.8978 1 17.5V6.5C1 6.10217 1.15804 5.72064 1.43934 5.43934C1.72064 5.15803 2.10218 5 2.5 5H14.5C14.8978 5 15.2794 5.15803 15.5607 5.43934C15.842 5.72064 16 6.10217 16 6.5V17.5Z" fill="white"/>
</svg>
